# xmcd
#
# Track frame offsets: 
#        150
#        17767
#        40527
#        65162
#        81683
#        100447
#        119657
#        137688
#        166609
#        188119
#
# Disc length: 2625 seconds
#
# Revision: 0
# Processed by: cddbd v1.5.2PL0 Copyright (c) Steve Scherf et al.
# Submitted via: ExactAudioCopy v0.99pb5
#
DISCID=890a3f0a
DTITLE=Мастер - Акустика
DYEAR=2005
DGENRE=
TTITLE0=Плач свирели
TTITLE1=Тореро
TTITLE2=Высокосный век
TTITLE3=33 жизни
TTITLE4=Палачи
TTITLE5=Пепел на ветру
TTITLE6=Игра
TTITLE7=Кресты
TTITLE8=Heavy ламбада
TTITLE9=Ветер
EXTD=
EXTT0=
EXTT1=
EXTT2=
EXTT3=
EXTT4=
EXTT5=
EXTT6=
EXTT7=
EXTT8=
EXTT9=
PLAYORDER=
